<?xml version="1.0" encoding="utf-8"?>
<!-- Generator: Adobe Illustrator 25.0.1, SVG Export Plug-In . SVG Version: 6.00 Build 0)  -->
<svg version="1.0" id="Layer_1" xmlns="http://www.w3.org/2000/svg" xmlns:xlink="http://www.w3.org/1999/xlink" x="0px" y="0px"
	 viewBox="0 0 24.5 15.6" style="enable-background:new 0 0 24.5 15.6;" xml:space="preserve">
<style type="text/css">
	.st0{fill:#8247E5;}
</style>
<g>
	<path class="st0" d="M9.9,6.9c0.1,0.1,0.2,0.2,0.3,0.3c0.1,0.1,0.1,0.3,0.1,0.5c0,0.2,0,0.4-0.1,0.5C10.2,8.5,10,8.6,9.9,8.7
		C9.7,8.7,9.6,8.8,9.4,8.8c-0.1,0-0.2,0-0.3-0.1C9,8.7,8.9,8.6,8.8,8.6v1H8.2V6.9h0.5l0.1,0.2C9,6.9,9.2,6.8,9.5,6.8
		C9.6,6.8,9.8,6.8,9.9,6.9z M9.6,8.2C9.7,8.1,9.8,8,9.8,7.8S9.7,7.5,9.6,7.4C9.5,7.3,9.4,7.3,9.3,7.3c-0.1,0-0.2,0-0.3,0.1
		c-0.1,0-0.1,0.1-0.2,0.2V8c0,0.1,0.1,0.2,0.2,0.2C9,8.3,9.1,8.3,9.2,8.3C9.4,8.3,9.5,8.3,9.6,8.2z"/>
	<path class="st0" d="M10.7,7.3c0.1-0.1,0.2-0.3,0.4-0.3c0.2-0.1,0.3-0.1,0.5-0.1s0.4,0,0.5,0.1c0.1,0.1,0.3,0.2,0.4,0.4
		c0.1,0.1,0.1,0.3,0.1,0.5c0,0.2,0,0.3-0.1,0.5c-0.1,0.1-0.2,0.3-0.4,0.3c-0.1,0.1-0.3,0.1-0.5,0.1s-0.4,0-0.5-0.1s-0.3-0.2-0.4-0.3
		c-0.1-0.1-0.1-0.3-0.1-0.5C10.6,7.6,10.6,7.4,10.7,7.3z M11.3,8.2c0.1,0.1,0.2,0.1,0.3,0.1s0.2-0.1,0.3-0.1s0.1-0.2,0.1-0.4
		c0-0.2,0-0.3-0.1-0.4c-0.1-0.1-0.2-0.1-0.3-0.1c-0.1,0-0.2,0.1-0.3,0.1c-0.1,0.1-0.1,0.2-0.1,0.4C11.2,7.9,11.2,8.1,11.3,8.2z"/>
	<path class="st0" d="M13.6,5.4v3.3H13V5.4H13.6z"/>
	<path class="st0" d="M16,6.9l-1.2,2.7h-0.6l0.4-1l-0.8-1.7h0.7L15,8l0.5-1.1C15.4,6.9,16,6.9,16,6.9z"/>
	<path class="st0" d="M18.2,6.9v1.8c0,0.2,0,0.3-0.1,0.5s-0.2,0.2-0.4,0.3s-0.4,0.1-0.6,0.1c-0.1,0-0.3,0-0.4-0.1
		c-0.1,0-0.2-0.1-0.3-0.1c-0.1,0-0.2-0.1-0.3-0.2l0.3-0.4C16.6,9,16.7,9,16.8,9.1s0.2,0.1,0.3,0.1c0.1,0,0.3,0,0.4-0.1
		c0.1-0.1,0.1-0.2,0.1-0.3V8.5c-0.1,0.1-0.1,0.2-0.3,0.2c-0.1,0.1-0.3,0.1-0.4,0.1s-0.3,0-0.5-0.1c-0.1-0.1-0.2-0.2-0.3-0.3
		C16,8.1,16,8,16,7.8c0-0.2,0-0.3,0.1-0.5s0.2-0.3,0.4-0.4c0.1-0.1,0.3-0.1,0.4-0.1c0.1,0,0.3,0,0.4,0.1c0.1,0,0.2,0.1,0.3,0.2
		l0.1-0.1H18.2z M17.6,8V7.6c0-0.1-0.1-0.2-0.2-0.2c-0.1,0-0.2-0.1-0.3-0.1c-0.1,0-0.3,0.1-0.4,0.1c-0.1,0.1-0.1,0.2-0.1,0.4
		c0,0.1,0,0.3,0.1,0.4c0.1,0.1,0.2,0.2,0.4,0.2C17.3,8.3,17.5,8.2,17.6,8z"/>
	<path class="st0" d="M18.7,7.3C18.8,7.1,18.9,7,19,6.9c0.2-0.1,0.3-0.1,0.5-0.1s0.4,0,0.5,0.1c0.1,0.1,0.3,0.2,0.4,0.3
		c0.1,0.2,0.1,0.3,0.1,0.5s0,0.4-0.1,0.5c-0.1,0.2-0.2,0.3-0.4,0.4c-0.1,0.1-0.3,0.1-0.5,0.1s-0.4,0-0.5-0.1
		c-0.2-0.1-0.3-0.2-0.4-0.3c-0.1-0.2-0.1-0.3-0.1-0.5C18.5,7.6,18.6,7.4,18.7,7.3z M19.2,8.2c0.1,0.1,0.2,0.1,0.3,0.1
		s0.2-0.1,0.3-0.1S20,7.9,20,7.8c0-0.2,0-0.3-0.1-0.4c-0.1-0.1-0.2-0.1-0.3-0.1s-0.2,0.1-0.3,0.1c-0.1,0.1-0.1,0.2-0.1,0.4
		C19.1,7.9,19.2,8.1,19.2,8.2z"/>
	<path class="st0" d="M22.7,7c0.1,0.1,0.2,0.2,0.2,0.4v1.4h-0.6V7.6c0-0.2-0.1-0.3-0.3-0.3c-0.1,0-0.2,0.1-0.3,0.2S21.5,7.8,21.5,8
		v0.7H21V6.9h0.5l0,0.3c0.1-0.1,0.2-0.2,0.3-0.3c0.1-0.1,0.3-0.1,0.4-0.1C22.4,6.8,22.5,6.9,22.7,7z"/>
</g>
<path class="st0" d="M5.7,6.9c-0.1-0.1-0.2-0.1-0.3,0L4.6,7.3L4.1,7.6L3.3,8.1C3.2,8.2,3.1,8.2,3,8.1L2.3,7.7
	C2.2,7.7,2.2,7.6,2.2,7.4V6.7c0-0.1,0.1-0.2,0.2-0.3L3,6.1C3.1,6,3.2,6,3.3,6.1l0.6,0.3C4,6.5,4.1,6.6,4.1,6.7v0.5l0.5-0.3V6.4
	c0-0.1-0.1-0.2-0.2-0.3L3.3,5.5C3.2,5.4,3.1,5.4,3,5.5L1.8,6.1C1.7,6.2,1.6,6.3,1.6,6.4v1.3C1.6,7.9,1.7,8,1.8,8L3,8.7
	c0.1,0.1,0.2,0.1,0.3,0l0.8-0.4l0.5-0.3l0.8-0.4c0.1-0.1,0.2-0.1,0.3,0l0.6,0.3C6.4,7.9,6.5,8,6.5,8.1v0.7c0,0.1-0.1,0.2-0.2,0.3
	L5.7,9.5c-0.1,0.1-0.2,0.1-0.3,0L4.8,9.1C4.7,9.1,4.6,9,4.6,8.9V8.4L4.1,8.7v0.5c0,0.1,0.1,0.2,0.2,0.3l1.2,0.7
	c0.1,0.1,0.2,0.1,0.3,0l1.2-0.7C7,9.4,7.1,9.3,7.1,9.2V7.8c0-0.1-0.1-0.2-0.2-0.3L5.7,6.9z"/>
</svg>
